<svg width="46" height="30" viewBox="0 0 46 30" fill="none" xmlns="http://www.w3.org/2000/svg">
<path d="M44.3668 11.5776C44.3678 10.0048 43.9444 8.46122 43.1415 7.11075C42.3386 5.76029 41.1862 4.65346 39.8069 3.90789C38.4275 3.16233 36.8727 2.8059 35.3077 2.87649C33.7426 2.94708 32.2259 3.44204 30.9187 4.30878C29.0424 2.63528 26.7561 1.4935 24.2947 1.00077C21.8334 0.50805 19.2857 0.682153 16.9135 1.50519C14.5414 2.32823 12.4303 3.77051 10.7972 5.68384C9.1641 7.59716 8.06791 9.91252 7.62128 12.392C5.47406 12.5852 3.48372 13.6021 2.06432 15.2311C0.644926 16.8601 -0.0942352 18.9758 0.000610829 21.138C0.0954569 23.3002 1.01701 25.3424 2.57355 26.8398C4.13008 28.3372 6.20176 29.1746 8.35759 29.1776H37.6013C39.0815 29.1808 40.5294 28.7438 41.7623 27.9216C42.9952 27.0994 43.9579 25.9289 44.5288 24.558C45.0996 23.187 45.2531 21.6769 44.9699 20.2185C44.6866 18.76 43.9793 17.4184 42.9372 16.3632C43.8722 14.9439 44.3695 13.2792 44.3668 11.5776ZM35.7 6.07198C36.6919 6.07235 37.6651 6.34264 38.5162 6.85409C39.3673 7.36554 40.0644 8.09903 40.5333 8.97653C41.0022 9.85403 41.2254 10.8427 41.1792 11.8374C41.133 12.8322 40.8191 13.7957 40.2708 14.6256C38.821 14.0479 37.2243 13.9548 35.7175 14.36C35.6059 11.6226 34.7057 8.97643 33.1261 6.74238C33.9155 6.30851 34.8 6.07816 35.7 6.07198ZM37.6125 25.9776H8.35759C7.66858 25.9897 6.98407 25.8639 6.344 25.6076C5.70393 25.3513 5.12112 24.9695 4.62959 24.4847C4.13806 23.9998 3.74766 23.4215 3.48116 22.7835C3.21466 22.1455 3.0774 21.4606 3.0774 20.7688C3.0774 20.077 3.21466 19.3921 3.48116 18.7541C3.74766 18.1161 4.13806 17.5378 4.62959 17.0529C5.12112 16.568 5.70393 16.1863 6.344 15.9299C6.98407 15.6736 7.66858 15.5479 8.35759 15.56C8.4351 15.5623 8.51235 15.5703 8.58868 15.584L8.86281 15.6176C9.07513 15.6396 9.28969 15.6185 9.49375 15.5556C9.69781 15.4928 9.88721 15.3894 10.0507 15.2517C10.2142 15.114 10.3485 14.9446 10.4456 14.7538C10.5427 14.563 10.6006 14.3545 10.6159 14.1408C10.7652 12.0492 11.5066 10.0439 12.7529 8.36112C13.9991 6.67832 15.6984 5.388 17.6505 4.64211C19.6027 3.89621 21.7265 3.72577 23.7719 4.15087C25.8173 4.57596 27.6991 5.57889 29.1959 7.04158C29.26 7.26661 29.3753 7.47362 29.5326 7.64632C29.69 7.81901 29.8851 7.95267 30.1027 8.03678C31.0838 9.24132 31.7946 10.6441 32.1865 12.1496C32.5785 13.655 32.6423 15.2275 32.3738 16.76C32.3216 17.0787 32.3666 17.4058 32.5031 17.6984C32.6395 17.9909 32.8609 18.2351 33.1383 18.3989C33.4156 18.5627 33.7358 18.6384 34.0568 18.616C34.3777 18.5936 34.6844 18.4743 34.9366 18.2736C35.69 17.6583 36.6301 17.3196 37.6013 17.3136C38.1681 17.3136 38.7293 17.4256 39.2529 17.6434C39.7766 17.8611 40.2523 18.1803 40.6531 18.5826C41.0539 18.985 41.3718 19.4626 41.5887 19.9883C41.8056 20.514 41.9172 21.0774 41.9172 21.6464C41.9172 22.2154 41.8056 22.7788 41.5887 23.3045C41.3718 23.8301 41.0539 24.3078 40.6531 24.7101C40.2523 25.1125 39.7766 25.4316 39.2529 25.6494C38.7293 25.8671 38.1681 25.9792 37.6013 25.9792L37.6125 25.9776Z" fill="white"/>
</svg>
